<?xml version="1.0" encoding="UTF-8" standalone="no"?><!DOCTYPE svg PUBLIC "-//W3C//DTD SVG 1.1//EN" "http://www.w3.org/Graphics/SVG/1.1/DTD/svg11.dtd"><svg width="100%" height="100%" viewBox="0 0 512 512" version="1.1" xmlns="http://www.w3.org/2000/svg" xmlns:xlink="http://www.w3.org/1999/xlink" xml:space="preserve" xmlns:serif="http://www.serif.com/" style="fill-rule:evenodd;clip-rule:evenodd;stroke-linejoin:round;stroke-miterlimit:1.41421;"><path d="M471.517,55.679l-1.683,-4.496c-0.049,-0.129 -0.143,-0.236 -0.265,-0.294l-4.177,-1.998c-34.385,-16.455 -82.887,-20.515 -125.8,-22.314l-48.333,0c-0.546,0 -0.712,0.777 -0.221,1.025l99.28,50.147c0.561,0.282 0.251,1.16 -0.351,0.994c-44.65,-12.285 -89.756,-18.503 -134.297,-18.503c-44.397,0 -89.357,6.18 -133.87,18.387c-0.605,0.166 -0.913,-0.722 -0.344,-0.998l102.764,-50.022c0.497,-0.242 0.335,-1.028 -0.215,-1.028l-52.256,0c-42.911,1.8 -91.416,5.86 -125.8,22.315l-4.177,1.998c-0.121,0.058 -0.217,0.163 -0.265,0.293l-1.682,4.497c-35.19,93.944 -45.189,253.429 -34.526,353.341l0.559,5.24l3.956,3.232c54.973,44.912 128.479,68.004 174.721,74.131l5.979,0.792c1.944,0.258 3.801,-0.925 4.487,-2.858l30.097,-84.718c0.939,-2.64 -0.659,-5.524 -3.302,-5.961l-9.236,-1.529c-32.204,-5.331 -77.83,-19.462 -116.389,-56.304c-0.823,-0.787 -0.029,-2.201 1.012,-1.794c3.133,1.227 6.589,2.649 10.147,4.113c8.719,3.589 17.736,7.3 23.619,8.773c41.35,10.358 83.282,15.612 124.718,15.612l0,-0.777l0.087,0l0.005,0.777c41.353,0 83.283,-5.252 124.629,-15.612c5.886,-1.474 14.904,-5.184 23.624,-8.774c3.555,-1.464 7.009,-2.886 10.142,-4.112c1.04,-0.407 1.834,1.008 1.011,1.794c-38.429,36.679 -84.113,50.774 -116.389,56.101l-9.233,1.523c-2.643,0.436 -4.243,3.316 -3.306,5.957l30.102,84.927c0.685,1.934 2.543,3.119 4.487,2.861l5.985,-0.792c46.239,-6.128 119.739,-29.219 174.713,-74.131l3.956,-3.233l0.56,-5.239c10.665,-99.911 0.665,-259.397 -34.523,-353.343Zm-314.078,230.649c-37.382,3.512 -68.569,-29.343 -65.24,-68.728c2.553,-30.191 25.627,-54.503 54.283,-57.196c37.382,-3.512 68.569,29.343 65.24,68.728c-2.555,30.191 -25.628,54.504 -54.283,57.196Zm207.423,0c-37.382,3.512 -68.569,-29.343 -65.24,-68.728c2.553,-30.191 25.627,-54.503 54.284,-57.196c37.38,-3.512 68.568,29.343 65.239,68.728c-2.554,30.191 -25.628,54.504 -54.283,57.196Z" style="fill:#fff;fill-rule:nonzero;"/></svg>