<?xml version="1.0" encoding="UTF-8" standalone="no"?><!DOCTYPE svg PUBLIC "-//W3C//DTD SVG 1.1//EN" "http://www.w3.org/Graphics/SVG/1.1/DTD/svg11.dtd"><svg width="100%" height="100%" viewBox="0 0 975 331" version="1.1" xmlns="http://www.w3.org/2000/svg" xmlns:xlink="http://www.w3.org/1999/xlink" xml:space="preserve" xmlns:serif="http://www.serif.com/" style="fill-rule:evenodd;clip-rule:evenodd;stroke-linejoin:round;stroke-miterlimit:1.41421;"><g><path d="M945.351,22.21l0,-8.478l5.573,0c2.832,0 5.939,0.553 5.939,3.963c0,4.239 -3.107,4.516 -6.579,4.516l-4.933,-0.001Zm15.714,-4.238c0,-5.438 -3.107,-7.834 -9.502,-7.834l-10.324,0l0,27.648l4.112,0l0,-11.981l4.751,0l7.126,11.981l4.568,0l-7.674,-12.165c3.928,-0.553 6.943,-2.673 6.943,-7.649l0,0Zm-10.689,25.897c-10.782,0 -19.189,-8.479 -19.189,-19.999c0,-11.336 8.407,-19.907 19.188,-19.907c10.598,0 18.913,8.571 18.913,19.907c0,11.52 -8.315,19.999 -18.913,19.999l0.001,0Zm0,-43.869c-12.974,0 -23.848,10.138 -23.848,23.87c0,13.916 10.874,24.053 23.847,24.053c12.701,0 23.664,-10.137 23.664,-24.053c0,-13.732 -10.964,-23.87 -23.664,-23.87l0.001,0Zm-206.677,148.655c0,-7.281 1.828,-13.271 5.391,-18.156c3.563,-4.884 8.77,-7.28 15.807,-7.28c6.03,0 10.508,1.935 13.339,5.898c2.924,3.963 5.757,9.861 8.589,17.603c6.945,17.326 16.081,25.988 27.685,25.988c5.026,0 9.229,-1.382 12.791,-4.146c3.564,-2.672 5.392,-6.544 5.392,-11.429c0,-5.16 -3.93,-10.782 -11.696,-16.957c-7.858,-6.174 -15.715,-12.257 -23.665,-18.156c-7.949,-5.99 -14.8,-12.994 -20.558,-21.288c-5.756,-8.295 -8.679,-18.248 -8.679,-30.045c0,-12.995 3.562,-24.422 10.324,-34.007c6.944,-9.676 16.081,-16.958 27.411,-22.027c11.33,-4.976 23.391,-7.464 36.09,-7.464c5.391,0 11.238,0.738 17.543,2.304c6.305,1.567 9.593,2.396 9.776,2.396c0.823,0 2.925,-0.829 6.396,-2.396c3.564,-1.567 6.762,-2.304 9.685,-2.304c5.026,0 9.777,2.212 14.344,6.543c4.479,4.424 8.132,9.677 10.783,15.944c2.741,6.174 4.112,11.797 4.112,16.589c0.001,6.267 -2.009,11.704 -6.03,16.312c-3.931,4.608 -9.046,7.004 -15.077,7.004c-4.476,0 -8.223,-1.198 -11.513,-3.594c-3.197,-2.396 -6.761,-5.899 -10.781,-10.598c-4.111,-4.701 -7.675,-8.295 -10.69,-10.691c-3.106,-2.396 -6.67,-3.594 -10.69,-3.594c-3.746,0 -6.761,1.013 -9.227,3.041c-2.376,2.027 -3.565,4.885 -3.565,8.479c0,4.423 1.554,8.11 4.479,11.059c2.923,2.949 7.125,5.807 12.333,8.571c12.883,7.097 22.751,12.994 29.695,17.787c6.853,4.792 12.792,11.059 17.544,18.801c4.934,7.649 7.308,17.233 7.308,28.569c0.001,11.521 -2.649,21.751 -7.858,30.506c-5.208,8.846 -12.242,16.127 -21.013,21.841c-8.773,5.715 -18.458,10.046 -29.147,12.811c-10.691,2.949 -21.381,4.331 -32.072,4.331c-12.608,0 -24.668,-2.028 -35.998,-6.174c-11.422,-4.148 -20.741,-10.691 -27.867,-19.446c-7.128,-8.848 -10.691,-19.632 -10.691,-32.625Zm-88.719,-87.368c0.092,-1.014 0.366,-3.041 0.731,-5.99c0.456,-2.95 0.64,-5.53 0.64,-7.558c0,-2.949 -0.731,-5.069 -2.285,-6.174c-1.553,-1.107 -3.929,-2.212 -7.034,-3.318c-3.198,-1.015 -5.574,-2.304 -7.219,-3.871c-1.553,-1.474 -2.375,-4.055 -2.375,-7.741c0,-4.885 3.289,-9.032 9.867,-12.533c6.579,-3.503 20.923,-5.254 42.944,-5.254c15.349,0 27.227,0.553 35.633,1.474c8.407,1.106 14.436,2.857 18.001,5.438c3.654,2.58 5.481,6.267 5.481,11.151c0,3.779 -0.914,6.451 -2.65,7.834c-1.735,1.474 -4.476,2.58 -8.223,3.502c-3.654,0.922 -6.578,2.027 -8.68,3.41c-2.009,1.29 -3.381,3.778 -4.02,7.465c-0.364,2.303 -0.914,5.161 -1.645,8.294c-0.639,3.318 -1.187,5.807 -1.553,7.557l-10.599,75.479c-1.37,9.678 -1.918,15.668 -1.918,18.065c0,4.883 0.822,8.385 2.557,10.506c1.644,2.119 4.112,3.779 7.218,4.976c3.289,1.29 5.576,2.581 7.128,3.872c1.553,1.382 2.284,3.961 2.284,7.74c0,8.111 -4.843,13.363 -14.619,15.759c-9.684,2.489 -21.837,3.687 -36.273,3.687c-15.898,0 -28.234,-0.553 -36.913,-1.751c-8.681,-1.106 -14.985,-3.042 -19.005,-5.991c-3.929,-2.948 -5.939,-7.187 -5.939,-12.534c0.001,-3.962 0.823,-6.543 2.65,-7.834c1.644,-1.29 4.842,-2.763 9.228,-4.33c4.476,-1.66 8.04,-3.872 10.507,-6.727c2.559,-2.858 4.203,-7.558 5.026,-14.194l11.055,-90.409Zm-198.727,141.559c-11.42,0 -19.279,-1.476 -23.664,-4.424c-4.294,-2.949 -6.487,-7.189 -6.487,-12.534c0,-4.424 0.915,-7.189 2.65,-8.571c1.918,-1.291 4.933,-2.765 9.32,-4.515c4.294,-1.751 6.851,-3.779 7.583,-6.084c2.924,-10.322 5.665,-22.487 8.131,-36.495c2.377,-14.009 4.295,-28.017 5.756,-42.118c1.371,-14.193 2.102,-26.45 2.102,-36.863c0.001,-3.503 -0.822,-5.898 -2.283,-7.373c-1.553,-1.567 -3.931,-2.857 -6.854,-4.147c-3.014,-1.199 -5.298,-2.489 -6.762,-3.964c-1.553,-1.474 -2.375,-3.778 -2.375,-7.188c0,-11.981 9.228,-18.063 27.777,-18.063c7.766,0.276 19.37,0.368 34.72,0.368c21.288,0 37.279,-0.092 47.694,-0.368c16.996,0 30.334,3.778 40.019,11.244c9.686,7.465 14.529,18.523 14.529,33.084c0,6.176 -1.28,11.797 -3.655,16.773c-2.375,4.977 -5.117,9.032 -8.04,12.166c-2.925,3.134 -6.123,6.083 -9.504,9.033c-3.471,2.947 -5.207,4.791 -5.207,5.529c0,1.381 2.101,3.317 6.212,5.713c4.113,2.489 7.676,4.885 10.691,7.189c3.015,2.304 5.848,6.267 8.68,11.889c2.742,5.53 4.111,12.901 4.111,21.933c0.001,8.294 -2.1,16.867 -6.12,25.621c-3.929,8.755 -11.057,16.312 -21.199,22.58c-10.141,6.358 -23.481,9.585 -40.293,9.585l-87.532,0Zm55.827,-33.916c0,2.121 0.731,3.502 2.102,4.054c1.37,0.554 3.563,0.83 6.577,0.83c14.255,0 21.381,-11.703 21.381,-35.296c0,-4.978 -0.547,-9.032 -1.645,-12.073c-1.187,-3.134 -3.106,-5.346 -5.848,-6.821c-2.74,-1.382 -6.578,-2.119 -11.421,-2.119c-2.467,0 -4.201,0.092 -5.298,0.277c-1.006,0.184 -1.737,0.644 -2.101,1.289c-0.367,0.738 -0.641,2.121 -0.733,4.24c-0.089,2.12 -0.182,3.871 -0.273,5.068l-2.741,40.551Zm6.761,-90.87c0,2.765 -0.091,4.608 -0.274,5.714c0,1.843 0.458,3.226 1.28,4.147c0.73,0.829 2.283,1.383 4.659,1.383c13.248,0 19.827,-11.612 19.827,-34.745c0,-5.807 -1.006,-10.045 -3.107,-12.81c-2.101,-2.672 -5.848,-4.055 -11.239,-4.055c-2.1,0 -3.654,0.184 -4.658,0.368c-0.914,0.185 -1.645,0.645 -1.92,1.291c-0.456,0.645 -0.73,1.935 -1.005,3.778c-0.182,1.843 -0.365,3.318 -0.548,4.332l-3.015,30.597Zm-265.243,70.595c0,-7.281 1.828,-13.271 5.39,-18.156c3.565,-4.884 8.772,-7.28 15.808,-7.28c6.03,0 10.506,1.935 13.34,5.898c2.831,3.963 5.664,9.861 8.588,17.603c6.853,17.326 16.08,25.988 27.684,25.988c4.935,0 9.229,-1.382 12.792,-4.146c3.564,-2.672 5.39,-6.544 5.39,-11.429c0,-5.161 -3.929,-10.782 -11.694,-16.957c-7.857,-6.174 -15.716,-12.257 -23.665,-18.156c-7.949,-5.99 -14.801,-12.994 -20.557,-21.288c-5.756,-8.295 -8.68,-18.248 -8.68,-30.045c0.001,-12.995 3.471,-24.422 10.416,-34.007c6.851,-9.676 15.989,-16.958 27.319,-22.027c11.33,-4.976 23.39,-7.464 36.09,-7.464c5.299,0 11.238,0.738 17.451,2.304c6.396,1.567 9.594,2.396 9.868,2.396c0.823,0 2.924,-0.829 6.396,-2.396c3.473,-1.567 6.67,-2.304 9.685,-2.304c4.934,0 9.777,2.212 14.345,6.543c4.478,4.424 8.04,9.677 10.782,15.944c2.741,6.174 4.111,11.797 4.111,16.589c0,6.267 -2.01,11.704 -6.03,16.312c-4.021,4.608 -9.045,7.004 -15.076,7.004c-4.476,0 -8.224,-1.198 -11.513,-3.594c-3.197,-2.396 -6.76,-5.899 -10.872,-10.598c-4.02,-4.701 -7.584,-8.295 -10.69,-10.691c-3.015,-2.396 -6.579,-3.594 -10.599,-3.594c-3.746,0 -6.761,1.013 -9.228,3.041c-2.375,2.027 -3.564,4.885 -3.564,8.479c0,4.423 1.553,8.11 4.478,11.059c2.924,2.949 7.035,5.807 12.334,8.571c12.883,7.097 22.659,12.994 29.604,17.787c6.944,4.792 12.791,11.059 17.634,18.801c4.843,7.649 7.219,17.233 7.219,28.569c0,11.521 -2.559,21.751 -7.768,30.506c-5.207,8.846 -12.242,16.127 -21.014,21.841c-8.772,5.715 -18.457,10.046 -29.146,12.811c-10.69,2.949 -21.381,4.331 -32.071,4.331c-12.701,0 -24.67,-2.028 -35.999,-6.174c-11.421,-4.148 -20.74,-10.691 -27.868,-19.446c-7.127,-8.848 -10.69,-19.632 -10.69,-32.625Zm-100.049,-22.671c3.654,-0.277 6.03,-0.922 7.218,-2.028c1.098,-1.014 1.645,-2.764 1.645,-5.069c0,-3.778 -0.731,-8.755 -2.376,-14.93c-1.553,-6.175 -3.38,-11.612 -5.573,-16.312c-2.01,-4.701 -3.746,-7.097 -5.3,-7.097c-2.009,0 -4.66,2.857 -8.04,8.664c-3.38,5.806 -6.396,12.165 -9.228,19.077c-2.741,6.912 -4.112,11.244 -4.112,12.994c0,2.396 2.651,3.963 8.132,4.701l17.634,0Zm-31.522,31.427c-6.395,0.552 -10.599,1.658 -12.7,3.501c-2.011,1.845 -3.015,4.7 -3.015,8.571c0,2.213 1.827,4.055 5.482,5.531c3.654,1.473 6.304,2.763 7.766,3.778c1.553,1.013 2.193,3.686 2.193,7.833c0,3.87 -1.096,7.097 -3.29,9.676c-2.192,2.581 -6.944,4.7 -14.252,6.268c-7.219,1.658 -18.274,2.488 -32.894,2.488c-10.049,0 -18.181,-1.106 -24.487,-3.226c-6.303,-2.027 -9.411,-7.004 -9.411,-14.929c0,-3.964 0.641,-6.636 1.92,-8.018c1.279,-1.476 3.471,-2.765 6.669,-3.779c3.198,-1.014 6.031,-2.397 8.589,-3.963c2.467,-1.567 4.934,-4.516 7.492,-8.755c0.914,-1.567 6.579,-10.784 16.812,-27.464c10.325,-16.681 18.548,-30.413 24.487,-41.011c6.122,-10.599 11.513,-21.565 16.446,-32.809c4.934,-11.244 8.498,-21.842 10.6,-31.795c2.009,-8.756 5.39,-14.655 10.232,-17.696c4.935,-2.949 11.969,-4.423 21.289,-4.423c7.95,0 14.619,1.382 20.102,4.239c5.574,2.765 10.05,6.82 13.522,11.981c3.563,5.345 6.669,11.888 9.41,19.63c3.474,9.77 7.766,25.344 12.7,46.725c5.027,21.289 10.235,44.422 15.808,69.305c1.096,4.793 2.559,8.111 4.477,10.045c1.919,1.937 4.294,3.412 7.218,4.516c2.925,1.106 5.025,2.305 6.214,3.778c1.279,1.384 1.917,4.149 1.917,8.203c0,12.902 -16.445,19.446 -49.064,19.446l-8.224,0l-7.582,0c-23.118,0 -34.72,-5.345 -34.72,-15.944c0.09,-3.594 0.73,-6.081 2.283,-7.742c1.462,-1.566 3.654,-3.042 6.761,-4.424c3.016,-1.381 5.117,-2.579 6.396,-3.778c1.28,-1.106 1.919,-3.041 1.919,-5.806c0,-2.58 -0.548,-4.424 -1.645,-5.621c-1.187,-1.291 -2.65,-2.12 -4.659,-2.673c-1.92,-0.461 -4.021,-1.014 -6.396,-1.658l-36.365,0Z" style="fill:#1a1a18;"/><path d="M0,330.515l874.574,0c12.977,0 25.313,-10.692 28.054,-23.779l11.239,-72.262l-893.946,0l-19.921,96.041Z" style="fill:#b1b2b2;"/><path d="M847.071,293.932l8.496,-0.46c0.183,2.67 0.64,4.605 1.463,5.525c1.279,1.567 3.746,2.302 7.309,2.302c2.923,0 5.027,-0.459 6.396,-1.565c1.281,-1.104 1.92,-2.394 1.92,-3.867c0,-1.289 -0.548,-2.395 -1.553,-3.316c-0.822,-0.644 -2.833,-1.751 -6.305,-3.224c-3.382,-1.472 -5.849,-2.763 -7.403,-3.774c-1.552,-1.015 -2.831,-2.304 -3.654,-3.869c-0.913,-1.565 -1.371,-3.408 -1.371,-5.616c0,-3.684 1.28,-6.816 4.02,-9.21c2.651,-2.486 6.489,-3.684 11.604,-3.684c5.118,0 9.139,1.198 11.88,3.591c2.833,2.487 4.386,5.71 4.66,9.762l-8.588,0.369c-0.184,-2.119 -1.006,-3.685 -2.285,-4.882c-1.279,-1.104 -3.198,-1.657 -5.756,-1.657c-2.467,0 -4.296,0.461 -5.301,1.29c-1.096,0.921 -1.644,2.026 -1.644,3.408c0,1.288 0.548,2.302 1.462,3.13c1.005,0.828 3.197,2.026 6.486,3.499c5.027,2.21 8.316,3.961 9.687,5.342c2.01,2.025 3.015,4.604 3.015,7.735c0,3.96 -1.553,7.275 -4.568,10.039c-3.107,2.763 -7.31,4.144 -12.793,4.144c-3.746,0 -7.036,-0.646 -9.777,-1.935c-2.74,-1.289 -4.752,-3.039 -5.847,-5.341c-1.189,-2.211 -1.645,-4.788 -1.554,-7.736l0.001,0Zm-36.002,-30.021l8.954,0l-5.208,24.035l-1.279,5.895c-0.091,0.552 -0.183,1.196 -0.274,1.932c0,1.659 0.638,2.948 2.01,3.961c1.37,1.106 3.381,1.565 6.031,1.565c2.376,0 4.294,-0.367 5.849,-1.196c1.552,-0.83 2.739,-2.026 3.561,-3.684c0.823,-1.658 1.737,-4.421 2.559,-8.288l5.026,-24.22l9.046,0l-5.208,25.048c-1.097,4.882 -2.377,8.658 -3.747,11.235c-1.461,2.579 -3.655,4.698 -6.487,6.263c-2.925,1.658 -6.579,2.487 -10.965,2.487c-5.3,0 -9.412,-1.289 -12.152,-3.777c-2.833,-2.577 -4.295,-5.801 -4.295,-9.76c0.092,-0.829 0.183,-1.751 0.364,-2.672c0.093,-0.644 0.458,-2.487 1.098,-5.525l5.117,-23.299Zm-22.113,28.363l9.046,1.382c-1.735,4.974 -4.386,8.749 -7.95,11.327c-3.564,2.672 -7.675,3.961 -12.426,3.961c-5.392,0 -9.594,-1.659 -12.61,-4.88c-3.014,-3.318 -4.477,-8.013 -4.477,-14.183c0.001,-5.064 1.004,-9.67 3.015,-13.813c2.011,-4.237 4.843,-7.369 8.407,-9.579c3.564,-2.211 7.492,-3.315 11.696,-3.315c4.751,0 8.588,1.289 11.513,3.775c2.923,2.579 4.659,6.078 5.208,10.499l-8.681,0.828c-0.456,-2.577 -1.37,-4.419 -2.741,-5.525c-1.37,-1.197 -3.198,-1.75 -5.483,-1.75c-2.466,0 -4.751,0.737 -6.944,2.302c-2.101,1.474 -3.837,3.869 -5.117,7.184c-1.28,3.223 -1.918,6.446 -1.918,9.761c0,3.5 0.822,6.263 2.467,8.197c1.736,1.935 3.745,2.854 6.303,2.854c2.285,0 4.387,-0.735 6.307,-2.208c2.009,-1.567 3.381,-3.87 4.385,-6.817Zm-67.616,-1.656c0,3.038 0.914,5.617 2.74,7.643c1.828,2.025 4.295,3.038 7.22,3.038c2.467,0 4.75,-0.735 7.035,-2.393c2.193,-1.659 4.111,-4.052 5.573,-7.368c1.463,-3.316 2.194,-6.539 2.194,-9.669c0,-3.408 -0.914,-6.17 -2.833,-8.196c-1.828,-1.935 -4.203,-2.947 -7.035,-2.947c-4.387,0 -8.043,2.118 -10.782,6.261c-2.742,4.145 -4.112,8.658 -4.112,13.631Zm-8.956,0.182c0,-2.669 0.367,-5.34 1.188,-8.288c1.006,-3.866 2.56,-7.274 4.66,-10.128c2.102,-2.856 4.661,-5.067 7.859,-6.724c3.198,-1.658 6.761,-2.486 10.874,-2.486c5.39,0 9.777,1.658 13.066,5.064c3.381,3.409 5.026,7.921 5.026,13.537c0,4.698 -1.098,9.21 -3.199,13.537c-2.192,4.33 -5.209,7.738 -8.863,10.132c-3.747,2.302 -7.95,3.5 -12.701,3.5c-4.112,0 -7.492,-0.922 -10.235,-2.855c-2.831,-1.843 -4.75,-4.144 -5.939,-6.907c-1.187,-2.763 -1.736,-5.619 -1.736,-8.382Zm-40.295,17.315l9.138,-44.204l30.701,0l-1.553,7.46l-21.656,0l-2.193,10.498l21.199,0l-1.462,7.458l-21.29,0l-3.93,18.788l-8.954,0Zm-30.976,-19.708l-16.996,0l-4.112,19.708l-9.046,0l9.23,-44.204l8.953,0l-3.47,17.036l16.995,0l3.563,-17.036l8.955,0l-9.138,44.204l-9.045,0l4.111,-19.708Zm-53.546,-3.96l19.738,0l-3.93,19.062c-2.284,1.567 -5.116,2.856 -8.496,3.869c-3.382,1.013 -6.854,1.566 -10.326,1.566c-5.483,0 -9.596,-1.289 -12.519,-3.684c-3.928,-3.407 -5.939,-8.288 -5.939,-14.735c0,-4.328 0.823,-8.472 2.558,-12.432c2.012,-4.697 4.935,-8.381 8.681,-11.051c3.746,-2.579 8.132,-3.868 13.249,-3.868c5.027,0 9.138,1.104 12.153,3.5c3.106,2.393 5.116,5.801 6.122,10.407l-8.406,0.919c-0.731,-2.487 -1.919,-4.327 -3.564,-5.616c-1.644,-1.289 -3.746,-1.935 -6.213,-1.935c-2.924,0 -5.575,0.828 -8.042,2.302c-2.467,1.566 -4.294,3.96 -5.756,7.184c-1.37,3.131 -2.009,6.629 -2.009,10.406c0,3.776 0.822,6.539 2.466,8.289c1.736,1.841 4.204,2.669 7.401,2.669c2.01,0 3.929,-0.276 6.03,-0.735c2.011,-0.645 3.747,-1.291 5.3,-2.028l1.37,-6.629l-11.329,0l1.461,-7.46Zm-58.936,-20.536l9.046,0l-5.206,24.035l-1.373,5.895c0,0.552 -0.091,1.196 -0.272,1.932c0,1.659 0.73,2.948 2.1,3.961c1.37,1.106 3.381,1.565 5.94,1.565c2.375,0 4.386,-0.367 5.847,-1.196c1.554,-0.83 2.742,-2.026 3.654,-3.684c0.824,-1.658 1.645,-4.421 2.56,-8.288l5.025,-24.22l8.956,0l-5.209,25.048c-1.097,4.882 -2.284,8.658 -3.747,11.235c-1.462,2.579 -3.563,4.698 -6.487,6.263c-2.923,1.658 -6.579,2.487 -10.966,2.487c-5.298,0 -9.32,-1.289 -12.151,-3.777c-2.833,-2.577 -4.204,-5.801 -4.204,-9.76c0,-0.829 0.092,-1.751 0.275,-2.672c0.091,-0.644 0.456,-2.487 1.096,-5.525l5.116,-23.299Zm-45.503,26.707c0,3.038 1.005,5.617 2.831,7.643c1.829,2.025 4.203,3.038 7.22,3.038c2.376,0 4.75,-0.735 6.944,-2.393c2.285,-1.659 4.111,-4.052 5.574,-7.368c1.462,-3.316 2.193,-6.539 2.193,-9.669c0,-3.408 -0.914,-6.17 -2.742,-8.196c-1.826,-1.935 -4.203,-2.947 -7.126,-2.947c-4.387,0 -7.951,2.118 -10.69,6.261c-2.742,4.145 -4.204,8.658 -4.204,13.631Zm-8.864,0.182c0,-2.669 0.366,-5.34 1.096,-8.288c1.098,-3.866 2.651,-7.274 4.662,-10.128c2.101,-2.856 4.75,-5.067 7.948,-6.724c3.107,-1.658 6.762,-2.486 10.782,-2.486c5.392,0 9.776,1.658 13.158,5.064c3.29,3.409 5.026,7.921 5.026,13.537c0,4.698 -1.096,9.21 -3.29,13.537c-2.192,4.33 -5.118,7.738 -8.863,10.132c-3.747,2.302 -7.95,3.5 -12.61,3.5c-4.111,0 -7.583,-0.922 -10.326,-2.855c-2.74,-1.843 -4.75,-4.144 -5.847,-6.907c-1.187,-2.763 -1.736,-5.619 -1.736,-8.382Zm-32.711,-7.551l4.75,0c4.843,0 8.132,-0.275 9.686,-0.828c1.555,-0.646 2.833,-1.565 3.746,-2.763c0.823,-1.289 1.279,-2.577 1.279,-3.959c0,-1.659 -0.639,-2.855 -1.917,-3.592c-0.822,-0.553 -2.467,-0.736 -5.118,-0.736l-9.959,0l-2.467,11.878Zm-5.209,24.866l-8.954,0l9.137,-44.204l19.462,0c3.38,0 5.94,0.367 7.858,1.105c1.829,0.644 3.381,1.933 4.478,3.775c1.187,1.842 1.736,4.053 1.736,6.722c0.001,3.778 -1.096,6.817 -3.38,9.304c-2.194,2.484 -5.575,3.958 -10.143,4.51c1.187,1.105 2.284,2.487 3.289,4.145c2.01,3.5 4.295,8.381 6.762,14.643l-9.687,0c-0.822,-2.487 -2.283,-6.355 -4.568,-11.604c-1.279,-2.855 -2.558,-4.789 -4.02,-5.802c-0.822,-0.552 -2.285,-0.828 -4.477,-0.828l-3.656,0l-3.837,18.234Zm-23.208,-19.708l-16.997,0l-4.112,19.708l-9.046,0l9.23,-44.204l8.953,0l-3.472,17.036l16.996,0l3.564,-17.036l8.955,0l-9.137,44.204l-9.047,0l4.113,-19.708Zm-48.521,19.708l-9.046,0l7.676,-36.744l-12.884,0l1.463,-7.46l34.538,0l-1.461,7.46l-12.61,0l-7.676,36.744Zm-75.566,-14.183l8.59,-0.46c0.092,2.67 0.547,4.605 1.37,5.525c1.278,1.567 3.747,2.302 7.309,2.302c2.925,0 5.118,-0.459 6.398,-1.565c1.279,-1.104 2.01,-2.394 2.01,-3.867c0,-1.289 -0.549,-2.395 -1.645,-3.316c-0.731,-0.644 -2.833,-1.751 -6.214,-3.224c-3.472,-1.472 -5.939,-2.763 -7.492,-3.774c-1.555,-1.015 -2.742,-2.304 -3.655,-3.869c-0.914,-1.565 -1.37,-3.408 -1.37,-5.616c0,-3.684 1.37,-6.816 4.02,-9.21c2.65,-2.486 6.487,-3.684 11.604,-3.684c5.117,0 9.137,1.198 11.969,3.591c2.833,2.487 4.387,5.71 4.661,9.762l-8.681,0.369c-0.183,-2.119 -1.004,-3.685 -2.284,-4.882c-1.278,-1.104 -3.198,-1.657 -5.756,-1.657c-2.467,0 -4.204,0.461 -5.3,1.29c-1.096,0.921 -1.554,2.026 -1.554,3.408c0,1.288 0.458,2.302 1.372,3.13c1.004,0.828 3.197,2.026 6.487,3.499c5.118,2.21 8.315,3.961 9.685,5.342c2.011,2.025 3.016,4.604 3.016,7.735c0.001,3.96 -1.462,7.275 -4.569,10.039c-3.014,2.763 -7.31,4.144 -12.793,4.144c-3.745,0 -7.035,-0.646 -9.776,-1.935c-2.742,-1.289 -4.66,-3.039 -5.849,-5.341c-1.097,-2.211 -1.644,-4.788 -1.553,-7.736Zm-40.844,0l8.498,-0.46c0.183,2.67 0.639,4.605 1.462,5.525c1.28,1.567 3.747,2.302 7.309,2.302c2.925,0 5.026,-0.459 6.398,-1.565c1.278,-1.104 1.918,-2.394 1.918,-3.867c0,-1.289 -0.457,-2.395 -1.554,-3.316c-0.731,-0.644 -2.832,-1.751 -6.212,-3.224c-3.473,-1.472 -5.94,-2.763 -7.494,-3.774c-1.553,-1.015 -2.74,-2.304 -3.654,-3.869c-0.915,-1.565 -1.371,-3.408 -1.371,-5.616c0,-3.684 1.371,-6.816 4.02,-9.21c2.65,-2.486 6.488,-3.684 11.605,-3.684c5.117,0 9.137,1.198 11.97,3.591c2.74,2.487 4.294,5.71 4.568,9.762l-8.589,0.369c-0.182,-2.119 -1.005,-3.685 -2.285,-4.882c-1.278,-1.104 -3.198,-1.657 -5.756,-1.657c-2.467,0 -4.203,0.461 -5.3,1.29c-1.096,0.921 -1.645,2.026 -1.645,3.408c0,1.288 0.549,2.302 1.464,3.13c1.003,0.828 3.197,2.026 6.486,3.499c5.118,2.21 8.316,3.961 9.685,5.342c2.012,2.025 3.016,4.604 3.016,7.735c0.001,3.96 -1.462,7.275 -4.569,10.039c-3.014,2.763 -7.309,4.144 -12.792,4.144c-3.746,0 -7.035,-0.646 -9.777,-1.935c-2.741,-1.289 -4.751,-3.039 -5.848,-5.341c-1.097,-2.211 -1.645,-4.788 -1.554,-7.736l0.001,0Zm-42.214,14.183l9.136,-44.204l32.53,0l-1.553,7.46l-23.483,0l-2.194,9.946l22.752,0l-1.462,7.458l-22.843,0l-2.559,11.972l25.402,0l-1.552,7.368l-34.174,0Zm-12.519,-15.841l9.046,1.382c-1.736,4.974 -4.386,8.749 -7.951,11.327c-3.561,2.672 -7.674,3.961 -12.426,3.961c-5.39,0 -9.594,-1.659 -12.609,-4.88c-3.016,-3.318 -4.478,-8.013 -4.478,-14.183c0,-5.064 1.007,-9.67 3.016,-13.813c2.011,-4.237 4.843,-7.369 8.406,-9.579c3.564,-2.211 7.492,-3.315 11.696,-3.315c4.751,0 8.59,1.289 11.513,3.775c2.925,2.579 4.661,6.078 5.208,10.499l-8.679,0.828c-0.458,-2.577 -1.372,-4.419 -2.742,-5.525c-1.371,-1.197 -3.197,-1.75 -5.391,-1.75c-2.559,0 -4.843,0.737 -7.036,2.302c-2.102,1.474 -3.838,3.869 -5.116,7.184c-1.281,3.223 -1.92,6.446 -1.92,9.761c0,3.5 0.822,6.263 2.467,8.197c1.736,1.935 3.747,2.854 6.306,2.854c2.284,0 4.385,-0.735 6.395,-2.208c1.92,-1.567 3.381,-3.87 4.295,-6.817Zm-44.225,0l9.046,1.382c-1.736,4.974 -4.387,8.749 -7.95,11.327c-3.563,2.672 -7.674,3.961 -12.427,3.961c-5.39,0 -9.593,-1.659 -12.609,-4.88c-3.015,-3.318 -4.478,-8.013 -4.478,-14.183c0,-5.064 1.006,-9.67 3.016,-13.813c2.011,-4.237 4.843,-7.369 8.406,-9.579c3.564,-2.211 7.494,-3.315 11.697,-3.315c4.751,0 8.589,1.289 11.512,3.775c2.924,2.579 4.66,6.078 5.209,10.499l-8.681,0.828c-0.457,-2.577 -1.371,-4.419 -2.741,-5.525c-1.37,-1.197 -3.198,-1.75 -5.483,-1.75c-2.467,0 -4.751,0.737 -6.944,2.302c-2.102,1.474 -3.838,3.869 -5.117,7.184c-1.278,3.223 -1.919,6.446 -1.919,9.761c0,3.5 0.823,6.263 2.467,8.197c1.736,1.935 3.746,2.854 6.306,2.854c2.283,0 4.385,-0.735 6.395,-2.208c1.92,-1.567 3.381,-3.87 4.295,-6.817Zm-66.338,-28.363l8.956,0l-5.209,24.035l-1.279,5.895c-0.091,0.552 -0.183,1.196 -0.275,1.932c0,1.659 0.64,2.948 2.01,3.961c1.371,1.106 3.381,1.565 6.032,1.565c2.376,0 4.294,-0.367 5.847,-1.196c1.554,-0.83 2.742,-2.026 3.564,-3.684c0.822,-1.658 1.736,-4.421 2.558,-8.288l5.026,-24.22l9.046,0l-5.208,25.048c-1.096,4.882 -2.376,8.658 -3.838,11.235c-1.371,2.579 -3.563,4.698 -6.396,6.263c-2.924,1.658 -6.579,2.487 -11.056,2.487c-5.209,0 -9.32,-1.289 -12.062,-3.777c-2.833,-2.577 -4.294,-5.801 -4.294,-9.76c0.091,-0.829 0.182,-1.751 0.366,-2.672c0.09,-0.644 0.456,-2.487 1.004,-5.525l5.208,-23.299Zm-49.159,30.021l8.59,-0.46c0.091,2.67 0.639,4.605 1.462,5.525c1.279,1.567 3.746,2.302 7.218,2.302c3.016,0 5.117,-0.459 6.488,-1.565c1.279,-1.104 1.919,-2.394 1.919,-3.867c0,-1.289 -0.549,-2.395 -1.645,-3.316c-0.731,-0.644 -2.833,-1.751 -6.214,-3.224c-3.381,-1.472 -5.848,-2.763 -7.401,-3.774c-1.553,-1.015 -2.832,-2.304 -3.747,-3.869c-0.822,-1.565 -1.279,-3.408 -1.279,-5.616c0,-3.684 1.279,-6.816 4.021,-9.21c2.65,-2.486 6.488,-3.684 11.604,-3.684c5.118,0 9.046,1.198 11.878,3.591c2.833,2.487 4.387,5.71 4.661,9.762l-8.589,0.369c-0.274,-2.119 -1.006,-3.685 -2.285,-4.882c-1.278,-1.104 -3.198,-1.657 -5.756,-1.657c-2.467,0 -4.294,0.461 -5.3,1.29c-1.097,0.921 -1.644,2.026 -1.644,3.408c0,1.288 0.456,2.302 1.462,3.13c1.004,0.828 3.198,2.026 6.488,3.499c5.025,2.21 8.223,3.961 9.594,5.342c2.101,2.025 3.107,4.604 3.107,7.735c0,3.96 -1.554,7.275 -4.57,10.039c-3.106,2.763 -7.31,4.144 -12.792,4.144c-3.747,0 -7.036,-0.646 -9.777,-1.935c-2.833,-1.289 -4.751,-3.039 -5.848,-5.341c-1.188,-2.211 -1.736,-4.788 -1.645,-7.736Z" style="fill:#fff;"/></g></svg>